<mxfile host="65bd71144e">
    <diagram id="ZJsXuMtxSHMeM89a7szW" name="Page-1">
        <mxGraphModel dx="798" dy="568" grid="0" gridSize="10" guides="1" tooltips="1" connect="1" arrows="1" fold="1" page="1" pageScale="1" pageWidth="827" pageHeight="1169" background="#ffffff" math="0" shadow="0">
            <root>
                <mxCell id="0"/>
                <mxCell id="1" parent="0"/>
                <mxCell id="2" value="CrawlerFigure" style="swimlane;fontStyle=1;align=center;verticalAlign=top;childLayout=stackLayout;horizontal=1;startSize=26;horizontalStack=0;resizeParent=1;resizeParentMax=0;resizeLast=0;collapsible=1;marginBottom=0;fillColor=#f5f5f5;fontColor=#333333;strokeColor=#666666;" parent="1" vertex="1">
                    <mxGeometry x="40" y="429" width="209" height="168" as="geometry"/>
                </mxCell>
                <mxCell id="3" value="- figures: List&lt;Figure&gt;&#10;- dataList: ObservableList&lt;Historical&gt;&#10;- doc: Document" style="text;strokeColor=none;fillColor=none;align=left;verticalAlign=top;spacingLeft=4;spacingRight=4;overflow=hidden;rotatable=0;points=[[0,0.5],[1,0.5]];portConstraint=eastwest;fontColor=#000000;" parent="2" vertex="1">
                    <mxGeometry y="26" width="209" height="53" as="geometry"/>
                </mxCell>
                <mxCell id="4" value="" style="line;strokeWidth=1;fillColor=none;align=left;verticalAlign=middle;spacingTop=-1;spacingLeft=3;spacingRight=3;rotatable=0;labelPosition=right;points=[];portConstraint=eastwest;strokeColor=inherit;" parent="2" vertex="1">
                    <mxGeometry y="79" width="209" height="8" as="geometry"/>
                </mxCell>
                <mxCell id="5" value="+ CrawlerFigure(dataList)&#10;- CrawlFigure(): void&#10;- CrawlKings(): void&#10;- addToList(Figure): void&#10;- mergeData(Figure, Figure): void" style="text;strokeColor=none;fillColor=none;align=left;verticalAlign=top;spacingLeft=4;spacingRight=4;overflow=hidden;rotatable=0;points=[[0,0.5],[1,0.5]];portConstraint=eastwest;fontColor=#000000;" parent="2" vertex="1">
                    <mxGeometry y="87" width="209" height="81" as="geometry"/>
                </mxCell>
                <mxCell id="6" value="CrawlerDynasty" style="swimlane;fontStyle=1;align=center;verticalAlign=top;childLayout=stackLayout;horizontal=1;startSize=26;horizontalStack=0;resizeParent=1;resizeParentMax=0;resizeLast=0;collapsible=1;marginBottom=0;fillColor=#f5f5f5;fontColor=#333333;strokeColor=#666666;" parent="1" vertex="1">
                    <mxGeometry x="39" y="95" width="209" height="140" as="geometry"/>
                </mxCell>
                <mxCell id="7" value="- dynasties: List&lt;Dynasty&gt;&#10;- dataList: ObservableList&lt;Historical&gt;&#10;- doc: Document" style="text;strokeColor=none;fillColor=none;align=left;verticalAlign=top;spacingLeft=4;spacingRight=4;overflow=hidden;rotatable=0;points=[[0,0.5],[1,0.5]];portConstraint=eastwest;fontColor=#000000;" parent="6" vertex="1">
                    <mxGeometry y="26" width="209" height="54" as="geometry"/>
                </mxCell>
                <mxCell id="8" value="" style="line;strokeWidth=1;fillColor=none;align=left;verticalAlign=middle;spacingTop=-1;spacingLeft=3;spacingRight=3;rotatable=0;labelPosition=right;points=[];portConstraint=eastwest;strokeColor=inherit;" parent="6" vertex="1">
                    <mxGeometry y="80" width="209" height="8" as="geometry"/>
                </mxCell>
                <mxCell id="9" value="+ CrawlerDynasty(dataList)&#10;- detailHandle(Element): void&#10;- getRelativeLink(Element): void" style="text;strokeColor=none;fillColor=none;align=left;verticalAlign=top;spacingLeft=4;spacingRight=4;overflow=hidden;rotatable=0;points=[[0,0.5],[1,0.5]];portConstraint=eastwest;fontColor=#000000;" parent="6" vertex="1">
                    <mxGeometry y="88" width="209" height="52" as="geometry"/>
                </mxCell>
                <mxCell id="10" value="CrawlerFestival" style="swimlane;fontStyle=1;align=center;verticalAlign=top;childLayout=stackLayout;horizontal=1;startSize=26;horizontalStack=0;resizeParent=1;resizeParentMax=0;resizeLast=0;collapsible=1;marginBottom=0;fillColor=#f5f5f5;fontColor=#333333;strokeColor=#666666;" parent="1" vertex="1">
                    <mxGeometry x="40" y="259" width="209" height="124" as="geometry"/>
                </mxCell>
                <mxCell id="11" value="- festival: List&lt;Festival&gt;&#10;- dataList: ObservableList&lt;Historical&gt;&#10;- doc: Document" style="text;strokeColor=none;fillColor=none;align=left;verticalAlign=top;spacingLeft=4;spacingRight=4;overflow=hidden;rotatable=0;points=[[0,0.5],[1,0.5]];portConstraint=eastwest;fontColor=#000000;" parent="10" vertex="1">
                    <mxGeometry y="26" width="209" height="50" as="geometry"/>
                </mxCell>
                <mxCell id="12" value="" style="line;strokeWidth=1;fillColor=none;align=left;verticalAlign=middle;spacingTop=-1;spacingLeft=3;spacingRight=3;rotatable=0;labelPosition=right;points=[];portConstraint=eastwest;strokeColor=inherit;" parent="10" vertex="1">
                    <mxGeometry y="76" width="209" height="8" as="geometry"/>
                </mxCell>
                <mxCell id="13" value="+ CrawlerFestival(dataList)&#10;+ getFestival(): festival" style="text;strokeColor=none;fillColor=none;align=left;verticalAlign=top;spacingLeft=4;spacingRight=4;overflow=hidden;rotatable=0;points=[[0,0.5],[1,0.5]];portConstraint=eastwest;fontColor=#000000;" parent="10" vertex="1">
                    <mxGeometry y="84" width="209" height="40" as="geometry"/>
                </mxCell>
                <mxCell id="14" value="CrawlerLocation" style="swimlane;fontStyle=1;align=center;verticalAlign=top;childLayout=stackLayout;horizontal=1;startSize=26;horizontalStack=0;resizeParent=1;resizeParentMax=0;resizeLast=0;collapsible=1;marginBottom=0;fillColor=#f5f5f5;fontColor=#333333;strokeColor=#666666;" parent="1" vertex="1">
                    <mxGeometry x="41" y="627" width="208" height="117" as="geometry"/>
                </mxCell>
                <mxCell id="15" value="- locations: List&lt;Location&gt;&#10;- dataList: ObservableList&lt;Historical&gt;" style="text;strokeColor=none;fillColor=none;align=left;verticalAlign=top;spacingLeft=4;spacingRight=4;overflow=hidden;rotatable=0;points=[[0,0.5],[1,0.5]];portConstraint=eastwest;fontColor=#000000;" parent="14" vertex="1">
                    <mxGeometry y="26" width="208" height="35" as="geometry"/>
                </mxCell>
                <mxCell id="16" value="" style="line;strokeWidth=1;fillColor=none;align=left;verticalAlign=middle;spacingTop=-1;spacingLeft=3;spacingRight=3;rotatable=0;labelPosition=right;points=[];portConstraint=eastwest;strokeColor=inherit;" parent="14" vertex="1">
                    <mxGeometry y="61" width="208" height="7" as="geometry"/>
                </mxCell>
                <mxCell id="17" value="+ CrawlerLocation(dataList)&#10;+getLocation(): locations&#10;-getDetail(String url): void&#10;" style="text;strokeColor=none;fillColor=none;align=left;verticalAlign=top;spacingLeft=4;spacingRight=4;overflow=hidden;rotatable=0;points=[[0,0.5],[1,0.5]];portConstraint=eastwest;fontColor=#000000;" parent="14" vertex="1">
                    <mxGeometry y="68" width="208" height="49" as="geometry"/>
                </mxCell>
                <mxCell id="18" value="CrawlerWar" style="swimlane;fontStyle=1;align=center;verticalAlign=top;childLayout=stackLayout;horizontal=1;startSize=26;horizontalStack=0;resizeParent=1;resizeParentMax=0;resizeLast=0;collapsible=1;marginBottom=0;fillColor=#f5f5f5;fontColor=#333333;strokeColor=#666666;" parent="1" vertex="1">
                    <mxGeometry x="40" y="781" width="208" height="126" as="geometry"/>
                </mxCell>
                <mxCell id="19" value="- wars: List&lt;War&gt;&#10;- dataList: ObservableList&lt;Historical&gt;&#10;- doc: Document&#10;" style="text;strokeColor=none;fillColor=none;align=left;verticalAlign=top;spacingLeft=4;spacingRight=4;overflow=hidden;rotatable=0;points=[[0,0.5],[1,0.5]];portConstraint=eastwest;fontColor=#000000;" parent="18" vertex="1">
                    <mxGeometry y="26" width="208" height="52" as="geometry"/>
                </mxCell>
                <mxCell id="20" value="" style="line;strokeWidth=1;fillColor=none;align=left;verticalAlign=middle;spacingTop=-1;spacingLeft=3;spacingRight=3;rotatable=0;labelPosition=right;points=[];portConstraint=eastwest;strokeColor=inherit;" parent="18" vertex="1">
                    <mxGeometry y="78" width="208" height="8" as="geometry"/>
                </mxCell>
                <mxCell id="21" value="+ CrawlerWar(dataList)&#10;+ getWar(): wars" style="text;strokeColor=none;fillColor=none;align=left;verticalAlign=top;spacingLeft=4;spacingRight=4;overflow=hidden;rotatable=0;points=[[0,0.5],[1,0.5]];portConstraint=eastwest;fontColor=#000000;" parent="18" vertex="1">
                    <mxGeometry y="86" width="208" height="40" as="geometry"/>
                </mxCell>
                <mxCell id="30" value="Crawler" style="swimlane;fontStyle=1;align=center;verticalAlign=top;childLayout=stackLayout;horizontal=1;startSize=26;horizontalStack=0;resizeParent=1;resizeParentMax=0;resizeLast=0;collapsible=1;marginBottom=0;fillColor=#f5f5f5;fontColor=#333333;strokeColor=#666666;" parent="1" vertex="1">
                    <mxGeometry x="493" y="347" width="226" height="313" as="geometry">
                        <mxRectangle x="524" y="314" width="79" height="26" as="alternateBounds"/>
                    </mxGeometry>
                </mxCell>
                <mxCell id="31" value="- dataList: ObservableList&lt;Historical&gt;&#10;- crawlerDynasty: CrawlerDynasty&#10;- crawlerFestival: CrawlerFestival&#10;- crawlerFigure: CrawlerFigure&#10;- crawlerLocation: CrawlerLocation&#10;- crawlerWar: CrawlerWar" style="text;strokeColor=none;fillColor=none;align=left;verticalAlign=top;spacingLeft=4;spacingRight=4;overflow=hidden;rotatable=0;points=[[0,0.5],[1,0.5]];portConstraint=eastwest;fontColor=#000000;" parent="30" vertex="1">
                    <mxGeometry y="26" width="226" height="93" as="geometry"/>
                </mxCell>
                <mxCell id="32" value="" style="line;strokeWidth=1;fillColor=none;align=left;verticalAlign=middle;spacingTop=-1;spacingLeft=3;spacingRight=3;rotatable=0;labelPosition=right;points=[];portConstraint=eastwest;strokeColor=inherit;" parent="30" vertex="1">
                    <mxGeometry y="119" width="226" height="8" as="geometry"/>
                </mxCell>
                <mxCell id="33" value="+ getDataList(): dataList&#10;+ getCrawlerDynasty(): CrawlerDynasty&#10;+ getCrawlerFestival(): CrawlerFestival&#10;+ getCrawlerFigure(): CrawlerFigure&#10;+ getCrawlerLocation(): CrawlerLocation&#10;+ getCrawlerWar(): CrawlerWar&#10;+ crawlDataFromWeb(): void&#10;- crawlDynasty(): void&#10;- crawlerFestival(): void&#10;- crawlerFigure(): void&#10;- crawlerLocation(): void&#10;- crawlerWar(): void " style="text;strokeColor=none;fillColor=none;align=left;verticalAlign=top;spacingLeft=4;spacingRight=4;overflow=hidden;rotatable=0;points=[[0,0.5],[1,0.5]];portConstraint=eastwest;fontColor=#000000;" parent="30" vertex="1">
                    <mxGeometry y="127" width="226" height="186" as="geometry"/>
                </mxCell>
                <mxCell id="34" value="Use" style="endArrow=open;endSize=12;dashed=1;html=1;entryX=1;entryY=0.5;entryDx=0;entryDy=0;exitX=-0.007;exitY=0.419;exitDx=0;exitDy=0;exitPerimeter=0;strokeColor=#000000;fontColor=#000000;labelBackgroundColor=#FFFFFF;" parent="1" source="31" target="11" edge="1">
                    <mxGeometry width="160" relative="1" as="geometry">
                        <mxPoint x="342" y="464" as="sourcePoint"/>
                        <mxPoint x="504" y="464" as="targetPoint"/>
                    </mxGeometry>
                </mxCell>
                <mxCell id="35" value="Use" style="endArrow=open;endSize=12;dashed=1;html=1;entryX=1;entryY=0.5;entryDx=0;entryDy=0;fontColor=#000000;labelBackgroundColor=#FFFFFF;strokeColor=#000000;exitX=-0.007;exitY=0.314;exitDx=0;exitDy=0;exitPerimeter=0;" parent="1" source="31" target="7" edge="1">
                    <mxGeometry width="160" relative="1" as="geometry">
                        <mxPoint x="525" y="435" as="sourcePoint"/>
                        <mxPoint x="254" y="398" as="targetPoint"/>
                    </mxGeometry>
                </mxCell>
                <mxCell id="36" value="Use" style="endArrow=open;endSize=12;dashed=1;html=1;fontColor=#000000;labelBackgroundColor=#FFFFFF;strokeColor=#000000;entryX=1;entryY=0.5;entryDx=0;entryDy=0;exitX=-0.003;exitY=0.639;exitDx=0;exitDy=0;exitPerimeter=0;" parent="1" source="31" target="3" edge="1">
                    <mxGeometry width="160" relative="1" as="geometry">
                        <mxPoint x="527" y="467" as="sourcePoint"/>
                        <mxPoint x="254" y="398" as="targetPoint"/>
                    </mxGeometry>
                </mxCell>
                <mxCell id="37" value="Use" style="endArrow=open;endSize=12;dashed=1;html=1;entryX=1;entryY=0.5;entryDx=0;entryDy=0;fontColor=#000000;labelBackgroundColor=#FFFFFF;strokeColor=#000000;exitX=-0.007;exitY=0.783;exitDx=0;exitDy=0;exitPerimeter=0;" parent="1" source="31" target="15" edge="1">
                    <mxGeometry width="160" relative="1" as="geometry">
                        <mxPoint x="370.74" y="491.0139999999999" as="sourcePoint"/>
                        <mxPoint x="267.4180000000001" y="606.8340000000001" as="targetPoint"/>
                    </mxGeometry>
                </mxCell>
                <mxCell id="38" value="Use" style="endArrow=open;endSize=12;dashed=1;html=1;entryX=1;entryY=0.5;entryDx=0;entryDy=0;exitX=-0.007;exitY=0.926;exitDx=0;exitDy=0;exitPerimeter=0;fontColor=#000000;labelBackgroundColor=#FFFFFF;strokeColor=#000000;" parent="1" source="31" target="19" edge="1">
                    <mxGeometry width="160" relative="1" as="geometry">
                        <mxPoint x="380.68399999999997" y="548.488" as="sourcePoint"/>
                        <mxPoint x="384.0319999999999" y="670.2339999999999" as="targetPoint"/>
                    </mxGeometry>
                </mxCell>
            </root>
        </mxGraphModel>
    </diagram>
</mxfile>